<svg xmlns="http://www.w3.org/2000/svg" viewBox="0 0 400 500" preserveAspectRatio="xMidYMax slice" aria-hidden="true"><rect width="400" height="500" fill="#D8CDB8"/><path d="M56 500V189a144 144 0 0 1 288 0v311z" fill="#E3EBDC"/><rect y="440" width="400" height="60" fill="#C9BCA4"/><text x="200" y="475" text-anchor="middle" font-family="Jost, Helvetica, Arial, sans-serif" font-size="9" font-weight="500" letter-spacing="1.6" fill="#1F2A24">SMALL BATCHES, MADE WITH CARE</text><g><rect x="118" y="212" width="22" height="32" rx="11" fill="#1F2A24"/><rect x="112" y="240" width="34" height="12" rx="2" fill="#8C8378"/><rect x="92" y="250" width="64" height="190" rx="10" fill="#3F5D4A"/><rect x="100" y="330" width="48" height="52" rx="2" fill="#F4EFE6"/><text x="124" y="361" text-anchor="middle" font-family="Georgia, serif" font-size="7.5" font-weight="600" letter-spacing="1.8" fill="#1F2A24">MARIN</text></g><g><rect x="196" y="150" width="32" height="30" rx="4" fill="#1F2A24"/><rect x="168" y="176" width="88" height="264" rx="16" fill="#F4EFE6"/><rect x="178" y="290" width="68" height="76" rx="2" fill="#3F5D4A"/><text x="212" y="332" text-anchor="middle" font-family="Georgia, serif" font-size="7.5" font-weight="600" letter-spacing="1.8" fill="#fff">MARIN</text></g><g><rect x="268" y="360" width="72" height="26" rx="8" fill="#B4573C"/><path d="M268 384h72v42a14 14 0 0 1-14 14h-44a14 14 0 0 1-14-14z" fill="#F4EFE6"/><text x="304" y="418" text-anchor="middle" font-family="Georgia, serif" font-size="7.5" font-weight="600" letter-spacing="1.8" fill="#1F2A24">MARIN</text></g></svg>
